#tb 0: 1/10
#media_type 0: video
#codec_id 0: rawvideo
#dimensions 0: 384x288
#sar 0: 0/1
0,          0,          0,        1,   221184, 0x340ab080
0,          1,          1,        1,   221184, 0xc21105a0
0,          2,          2,        1,   221184, 0xa7482ab3
0,          3,          3,        1,   221184, 0x67b0402b
0,          4,          4,        1,   221184, 0xa0b9632a
0,          5,          5,        1,   221184, 0x54e6af93
0,          6,          6,        1,   221184, 0x90b3f085
0,          7,          7,        1,   221184, 0x7aea8672
0,          8,          8,        1,   221184, 0xbf01a23a
0,          9,          9,        1,   221184, 0x1dc692cc
0,         10,         10,        1,   221184, 0xd16bcc43
0,         11,         11,        1,   221184, 0x103b8c41
0,         12,         12,        1,   221184, 0xc2c964b6
0,         13,         13,        1,   221184, 0x2837fbec
0,         14,         14,        1,   221184, 0x16de6390
0,         15,         15,        1,   221184, 0xbaf0fd33
0,         16,         16,        1,   221184, 0x7b05cca6
0,         17,         17,        1,   221184, 0x5b0ae526
0,         18,         18,        1,   221184, 0xd786f4e2
0,         19,         19,        1,   221184, 0x21b88d75
0,         20,         20,        1,   221184, 0xe41e6297
0,         21,         21,        1,   221184, 0xd075f578
0,         22,         22,        1,   221184, 0x1eaffc99
0,         23,         23,        1,   221184, 0xcbd44422
0,         24,         24,        1,   221184, 0x0e377c8a
